<?xml version="1.0" standalone="no"?>
<!DOCTYPE svg PUBLIC "-//W3C//DTD SVG 1.1//EN" "http://www.w3.org/Graphics/SVG/1.1/DTD/svg11.dtd" >
<!--
2013-9-30: Created.
-->
<svg>
<metadata>
Created by iconfont
</metadata>
<defs>

<font id="iconfont" horiz-adv-x="1024" >
  <font-face
    font-family="iconfont"
    font-weight="500"
    font-stretch="normal"
    units-per-em="1024"
    ascent="896"
    descent="-128"
  />
    <missing-glyph />
    
    <glyph glyph-name="car" unicode="&#58892;" d="M844.05007-127.598864c-24.260543 0-47.697325 10.68127-64.301492 29.303396-17.415648 19.533892-26.621311 46.266743-26.62131 77.30976v33.735336H272.683984v-33.735336c0-31.043017-9.204639-57.775868-26.619264-77.308736-16.604166-18.62315-40.039925-29.30442-64.299445-29.30442-44.920072 0-90.393753 36.620036-90.393753 106.613156v33.735336H2.759345V392.29185c0 70.348208 47.376007 140.059919 92.489484 161.780617l74.485435 241.196341 0.358157 0.936325c10.252505 26.848485 25.997094 48.394197 46.795793 64.038502C241.204016 878.532163 271.252379 887.805364 306.200332 887.805364h413.373749c34.984792 0 65.057715-9.272177 89.385796-27.558659 20.796652-15.632025 36.551474-37.172621 46.825469-64.022129l0.36225-0.946558 0.298805-0.969071 74.16514-240.237503c45.11757-21.723767 92.478228-91.443665 92.450599-161.79085v-379.530966h-88.615247v-33.735336c0-69.993121-45.475727-106.613156-90.396823-106.613156zM211.285612 74.146976h603.240028v-95.133707c0-31.233352 14.827707-45.214784 29.52443-45.214784 14.433734 0 28.998451 13.980409 28.998451 45.214784v95.133707h88.615247V392.29185c0.013303 32.940227-15.617699 60.721967-24.935925 74.350359-15.578814 22.784936-30.936593 32.144094-34.884509 33.036417l-19.4684 2.496867L798.097482 775.172097c-13.515828 34.474163-39.210024 51.233871-78.521355 51.233872H306.200332c-39.268352 0-64.927755-16.760732-78.410837-51.226709l-84.309175-273.00786-19.47454-2.494821c-3.942799-0.884137-19.302625-10.228969-34.887578-33.016974-9.322319-13.630439-24.960485-41.417295-24.960485-74.368778v-318.144874h88.612177v-95.133707c0-31.233352 14.562671-45.214784 28.995381-45.214785 14.693654 0 29.520337 13.980409 29.520337 45.214785v95.13473zM799.514761 211.76631c-54.401004 0-98.658997 45.208645-98.658997 100.776218 0 55.602366 44.257993 100.838639 98.658997 100.83864 54.416354 0 98.685603-45.236274 98.685603-100.83864 0.004093-26.738991-10.140964-51.927673-28.564569-70.923306-18.671245-19.25146-43.573401-29.852912-70.121034-29.852912z m0 140.216486c-20.545942 0-37.260625-17.692964-37.260625-39.440268 0-21.713534 16.714683-39.377846 37.260625-39.377846 9.790994 0 19.041682 3.978614 26.048259 11.202133 7.249101 7.474228 11.239995 17.479093 11.238972 28.17162 0.001023 21.751397-16.72594 39.444361-37.287231 39.444361zM226.32412 211.76631c-54.410214 0-98.67537 45.208645-98.67537 100.776218 0 55.602366 44.265156 100.838639 98.67537 100.83864 54.395888 0 98.649787-45.236274 98.649788-100.83864 0.008186-26.730805-10.133801-51.92051-28.55536-70.920236-18.669198-19.252483-43.563168-29.855982-70.094428-29.855982z m0 140.216486c-20.554128 0-37.276998-17.692964-37.276998-39.440268 0-21.713534 16.72287-39.377846 37.276998-39.377846 9.772574 0 19.012006 3.977591 26.01449 11.199063 7.249101 7.476275 11.238972 17.480116 11.235902 28.169573 0.001023 21.756513-16.71059 39.449477-37.250392 39.449478z m597.978187 152.22089h-622.773919v61.398372h622.773919v-61.398372z"  horiz-adv-x="1024" />

    
    <glyph glyph-name="more" unicode="&#58881;" d="M280 812 219.2 752.8 683.2 300 219.2-152.8 280-212 804.8 300Z"  horiz-adv-x="1024" />

    
    <glyph glyph-name="more-copy-right" unicode="&#58884;" d="M676.021 359.413c4.972 4.669 7.862 11.202 7.925 18.059 0 0.133 0 0.235 0 0.386 0 6.737-2.684 13.169-7.388 17.956l-232.847 232.779c-9.91 9.91-25.936 9.91-35.847 0-9.908-9.877-9.908-25.968 0-35.879l214.338-214.319-213.817-201.351c-10.194-9.591-10.699-25.616-1.073-35.845 9.644-10.178 25.667-10.667 35.879-1.059l232.828 219.274zM1007.131 384.624c0 275.043-223.774 498.819-498.817 498.819-275.040 0-498.818-223.776-498.818-498.819 0-275.040 223.776-498.816 498.818-498.816 275.043 0 498.816 223.776 498.817 498.817zM60.241 384.624c0 247.057 200.999 448.090 448.073 448.090 247.057 0 448.087-201.034 448.087-448.090 0-247.073-201.030-448.071-448.086-448.071-247.073 0-448.073 200.999-448.072 448.071z"  horiz-adv-x="1024" />

    
    <glyph glyph-name="medicine" unicode="&#59071;" d="M511.63136 212.54144c13.0048 0 23.552 10.5472 23.552 23.552l0 55.296 55.296 0c13.0048 0 23.552 10.5472 23.552 23.552 0 13.0048-10.5472 23.552-23.552 23.552l-55.296 0 0 55.296c0 13.0048-10.5472 23.552-23.552 23.552-13.0048 0-23.552-10.5472-23.552-23.552l0-55.296-55.296 0c-13.0048 0-23.552-10.5472-23.552-23.552 0-13.0048 10.5472-23.552 23.552-23.552l55.296 0 0-55.296C488.07936 223.06816 498.62656 212.54144 511.63136 212.54144zM731.0336 243.24096c11.30496 0 20.48 9.17504 20.48 20.48L751.5136 518.06208c0 43.76576-17.03936 84.91008-47.98464 115.85536-4.608 4.62848-9.5232 8.82688-14.58176 12.82048 27.72992 7.92576 47.94368 40.16128 47.94368 79.95392 0 45.93664-26.89024 81.92-61.2352 81.92l-328.0896 0c-34.34496 0-61.2352-35.98336-61.2352-81.92 0-40.0384 20.43904-72.47872 48.4352-80.15872-4.95616-3.93216-9.76896-8.06912-14.31552-12.61568-30.94528-30.9248-47.98464-72.0896-47.98464-115.85536l0-394.81344c0-43.76576 17.03936-84.91008 47.98464-115.85536 30.94528-30.94528 72.0896-47.98464 115.85536-47.98464l151.36768 0c43.74528 0 84.8896 17.03936 115.85536 47.98464 30.94528 30.96576 47.98464 72.11008 47.98464 115.85536l0 38.0928c0 11.30496-9.17504 20.48-20.48 20.48-11.30496 0-20.48-9.17504-20.48-20.48l0-38.0928c0-32.80896-12.77952-63.67232-35.98336-86.89664-23.22432-23.20384-54.08768-35.98336-86.89664-35.98336l-151.36768 0c-32.82944 0-63.67232 12.77952-86.89664 35.98336s-35.98336 54.0672-35.98336 86.89664L313.42592 518.06208c0 10.07616 1.35168 19.92704 3.6864 29.47072l389.75488 0c2.33472-9.54368 3.6864-19.39456 3.6864-29.47072l0-254.32064C710.5536 252.416 719.72864 243.24096 731.0336 243.24096zM347.58656 767.63136l328.0896 0c8.06912 0 20.2752-16.34304 20.2752-40.96s-12.20608-40.96-20.2752-40.96l-328.0896 0c-8.06912 0-20.2752 16.34304-20.2752 40.96S339.51744 767.63136 347.58656 767.63136zM335.70816 588.4928c4.07552 5.79584 8.6016 11.34592 13.7216 16.46592 23.20384 23.20384 54.0672 35.98336 86.89664 35.98336l151.36768 0c32.82944 0 63.67232-12.77952 86.89664-35.98336 5.12-5.12 9.6256-10.6496 13.70112-16.46592L335.70816 588.4928z"  horiz-adv-x="1024" />

    
    <glyph glyph-name="diamond" unicode="&#59134;" d="M949.76 533.888l-137.856 222.016c-3.2 5.12-8.32 8.128-13.824 10.048-2.24 0.832-4.48 1.6-6.848 1.792C790.784 767.744 790.528 768 790.144 768L235.072 768C234.688 768 234.304 767.744 233.856 767.68c-3.264-0.128-6.4-0.96-9.472-2.432-0.64-0.32-1.408-0.384-2.048-0.768C222.208 764.352 222.016 764.416 221.824 764.288 218.496 762.24 215.936 759.552 213.952 756.48 213.76 756.288 213.504 756.224 213.376 755.968L74.304 534.016C74.048 533.568 74.24 533.12 73.984 532.736 71.936 529.024 70.4 524.992 70.4 520.384c0-0.448 0.256-0.896 0.256-1.344 0-0.832 0.32-1.472 0.448-2.304C71.808 512.256 73.536 508.16 76.288 504.704 76.544 504.32 76.48 503.872 76.8 503.488l418.432-474.56c4.864-5.504 11.84-8.704 19.2-8.704 0 0 0.064 0 0.064 0 7.36 0.064 14.4 3.2 19.264 8.832l413.568 474.56C954.688 512.064 955.712 524.352 949.76 533.888zM234.752 693.696 324.48 545.984 142.272 545.984 234.752 693.696zM620.224 494.784l-108.032-361.344L404.16 494.784 620.224 494.784zM419.008 545.984l93.184 160.768 93.184-160.768L419.008 545.984zM565.568 716.8l178.24 0-91.264-150.144L565.568 716.8zM371.84 566.656 280.576 716.8l178.24 0L371.84 566.656zM350.72 494.784l101.568-339.84-299.648 339.84L350.72 494.784zM673.664 494.784l198.08 0L570.24 148.864 673.664 494.784zM699.968 545.984l89.984 148.16 92.032-148.16L699.968 545.984z"  horiz-adv-x="1024" />

    
    <glyph glyph-name="furniture" unicode="&#58939;" d="M832 544a32 32 0 0 0-32 32V704a32 32 0 1 0 64 0v-128a32 32 0 0 0-32-32zM768 736H256a32 32 0 1 0 0 64h512a32 32 0 1 0 0-64zM192 544a32 32 0 0 0-32 32V704a32 32 0 1 0 64 0v-128a32 32 0 0 0-32-32zM960 64H64a32 32 0 0 0-32 32V480a32 32 0 0 0 32 32h160a32 32 0 0 0 32-32v-192h512v192a32 32 0 0 0 32 32h160a32 32 0 0 0 32-32v-384a32 32 0 0 0-32-32zM96 128h832V448h-96v-192a32 32 0 0 0-32-32H224a32 32 0 0 0-32 32v192H96v-320zM704 320H320a32 32 0 1 0 0 64h384a32 32 0 1 0 0-64zM224-32H128a32 32 0 1 0 0 64h96a32 32 0 1 0 0-64zM896-32h-96a32 32 0 1 0 0 64h96a32 32 0 1 0 0-64zM192 672a32 32 0 0 0-32 32c0 52.928 43.072 96 96 96a32 32 0 1 0 0-64c-17.664 0-32-14.368-32-32a32 32 0 0 0-32-32zM832 672a32 32 0 0 0-32 32c0 17.632-14.336 32-32 32a32 32 0 1 0 0 64c52.928 0 96-43.072 96-96a32 32 0 0 0-32-32z"  horiz-adv-x="1024" />

    
    <glyph glyph-name="dress" unicode="&#59377;" d="M810.666667 270.933333c-38.4 53.333333-128 198.4-166.4 260.266667l-2.133334 2.133333 59.733334 134.4s0 2.133333 2.133333 4.266667c4.266667 17.066667 0 36.266667-12.8 46.933333-10.666667 8.533333-23.466667 10.666667-36.266667 4.266667-4.266667-2.133333-19.2 2.133333-29.866666 6.4h-2.133334V787.2c0 12.8-8.533333 21.333333-21.333333 21.333333s-21.333333-8.533333-21.333333-21.333333v-51.2c-21.333333 2.133333-44.8-4.266667-68.266667-25.6-21.333333 17.066667-42.666667 25.6-59.733333 25.6V789.333333c0 12.8-8.533333 21.333333-21.333334 21.333334s-21.333333-8.533333-21.333333-21.333334v-53.333333c-8.533333-2.133333-14.933333-4.266667-21.333333-8.533333-8.533333-4.266667-19.2-8.533333-23.466667-6.4-17.066667 8.533333-42.666667 4.266667-59.733333-27.733334-2.133333-6.4-4.266667-12.8 0-19.2l61.866666-145.066666c-2.133333-4.266667-2.133333-6.4-4.266666-10.666667-8.533333-25.6-19.2-66.133333-61.866667-121.6-2.133333-2.133333-168.533333-194.133333-145.066667-398.933333 0-6.4 4.266667-10.666667 8.533334-14.933334 10.666667-8.533333 36.266667-23.466667 68.266666-23.466666 17.066667 0 34.133333 4.266667 51.2 12.8 2.133333 2.133333 4.266667 2.133333 6.4 0 12.8-8.533333 38.4-12.8 53.333334-12.8 19.2 0 34.133333 4.266667 49.066666 14.933333 2.133333 2.133333 6.4 2.133333 8.533334 0 8.533333-4.266667 34.133333-17.066667 66.133333-17.066667 17.066667 0 32 4.266667 44.8 10.666667 2.133333 2.133333 4.266667 2.133333 4.266667 2.133333 2.133333-2.133333 27.733333-8.533333 55.466666-8.533333 21.333333 0 38.4 4.266667 51.2 12.8 2.133333 2.133333 4.266667 2.133333 8.533334 0 8.533333-2.133333 36.266667-12.8 64-12.8 19.2 0 32 4.266667 42.666666 10.666667 2.133333 2.133333 4.266667 2.133333 6.4 2.133333 0 0 25.6-6.4 55.466667-6.4 25.6 0 46.933333 4.266667 64 14.933333 6.4 4.266667 10.666667 10.666667 10.666667 19.2 0 40.533333-6.4 187.733333-64 268.8zM345.6 682.666667c19.2-8.533333 38.4 0 55.466667 6.4 27.733333 10.666667 53.333333 21.333333 96-21.333334 4.266667-4.266667 10.666667-6.4 17.066666-6.4 6.4 0 12.8 4.266667 14.933334 8.533334 21.333333 32 42.666667 27.733333 78.933333 17.066666 17.066667-6.4 34.133333-10.666667 51.2-6.4L603.733333 554.666667h-206.933333l-51.2 128c-2.133333-2.133333 0-2.133333 0 0z m454.4-674.133334c-23.466667 0-44.8 6.4-44.8 6.4-14.933333 4.266667-29.866667 2.133333-42.666667-6.4 0 0-4.266667-4.266667-19.2-4.266666-17.066667 0-38.4 4.266667-49.066666 8.533333-14.933333 6.4-32 4.266667-44.8-4.266667-6.4-4.266667-17.066667-6.4-27.733334-6.4-21.333333 0-40.533333 6.4-40.533333 6.4-12.8 4.266667-27.733333 4.266667-40.533333-4.266666-6.4-4.266667-14.933333-6.4-25.6-6.4-21.333333 0-42.666667 10.666667-44.8 12.8-17.066667 10.666667-38.4 8.533333-53.333334-2.133334-6.4-4.266667-14.933333-6.4-25.6-6.4-17.066667 0-34.133333 6.4-34.133333 8.533334-14.933333 6.4-32 6.4-44.8 0-10.666667-6.4-21.333333-8.533333-32-8.533334-14.933333 0-25.6 4.266667-34.133333 10.666667-14.933333 177.066667 134.4 354.133333 134.4 356.266667 0 0 2.133333 2.133333 2.133333 4.266666 46.933333 61.866667 59.733333 106.666667 68.266667 134.4 0 2.133333 0 2.133333 2.133333 4.266667H608l2.133333-2.133333c38.4-61.866667 128-206.933333 168.533334-262.4 36.266667-51.2 53.333333-155.733333 55.466666-232.533334-10.666667-4.266667-21.333333-6.4-34.133333-6.4z"  horiz-adv-x="1024" />

    
    <glyph glyph-name="noodles" unicode="&#58893;" d="M988.03712 427.69408H33.26976v-138.5984c0-177.71008 136.89344-272.04608 211.26656-303.34464v-79.93856h532.72576v79.7184c74.92096 31.4112 212.8384 127.63136 212.83328 313.72288l-2.05824 128.44032z m-250.3168-391.28064l-21.89824-6.56384v-62.59712H305.97632v62.62272l-21.74464 6.64576c-49.16736 15.0272-189.52192 93.68064-189.52192 252.57472v77.1584h832.86528l1.08544-67.49696c0-199.5264-189.0304-261.77024-190.94016-262.34368z m203.83232 660.77184H437.76512v49.80224h503.78752v-49.80224z m-812.55936 0h-48.75264v49.80224h48.75264v-49.80224z m0-99.60448h-48.75264v49.80224h48.75264v-49.80224z m308.77184 49.80224h503.78752v-49.80224H437.76512v49.80224zM127.9744 518.18496c26.9056 5.84192 32.5632 26.71616 33.51552 31.5392V731.93984c0 62.64832 57.51808 89.74848 86.85056 89.74848l0.01024-49.80224c-4.52608-0.05632-38.10816-8.81152-38.10816-39.94624l-0.16896-187.10528c-2.64704-22.7584-20.7872-64.25088-71.95136-75.37152l-10.14784 48.72192z m131.0208 31.5392V731.93984c0 62.64832 57.51296 89.74848 86.85056 89.74848l0.01024-49.80224c-4.52608-0.05632-38.10816-8.81152-38.10816-39.94624l-0.16896-187.10528c-2.65216-22.7584-20.7872-64.25088-71.95648-75.37152l-10.1376 48.72192c26.90048 5.84192 32.55808 26.71616 33.5104 31.5392z m97.50528 0V731.93984c0 62.64832 57.51808 89.74848 86.85568 89.74848l0.00512-49.80224c-4.52608-0.05632-38.10816-8.81152-38.10816-39.94624l-0.16384-187.10528c-2.65216-22.7584-20.7872-64.25088-71.95648-75.37152l-10.14272 48.72192c26.90048 5.84192 32.55808 26.71616 33.5104 31.5392z"  horiz-adv-x="1024" />

    
    <glyph glyph-name="cup" unicode="&#59436;" d="M743.1 393.6c19.3 13.8 41.3 19.3 63.3 19.3 63.3 0 118.3-52.3 118.3-118.3s-52.3-118.3-118.3-118.3c-30.3 0-60.5 13.8-82.5 35.8-11-30.3-24.8-57.8-44-82.5-60.5-82.5-156.8-129.3-258.6-129.3s-195.4 46.8-258.6 129.3c-41.2 54.7-63.4 121.4-63.3 189.9V429.4c0 16.5 13.8 30.3 27.5 30.3h586c16.5 0 27.5-13.8 27.5-30.3l2.7-35.8z m63.3-38.5c-33 0-60.5-27.5-60.5-60.5s27.5-60.5 60.5-60.5 60.5 27.5 60.5 60.5-27.5 60.5-60.5 60.5zM157.1 396.4v-79.8c0-55 16.5-110.1 49.5-154.1 49.5-68.8 129.3-107.3 214.6-107.3s162.3 38.5 214.6 107.3c33 44 49.5 99.1 49.5 154.1V396.4H157.1z m85.2 330.1c-8.3 5.5-11 19.3-5.5 30.3s19.3 13.8 30.3 8.3c2.8-2.8 8.3-5.5 11-8.3 7.7-5 14.3-11.5 19.3-19.3 16.5-16.5 30.3-41.3 33-66v-16.5c-5.5-24.8-22-44-41.3-57.8-11-11-22-22-22-35.8 0-11 5.5-22 8.3-30.3 5.5-8.3 11-13.8 16.5-22l13.8-13.8c8.3-8.3 11-22 2.8-30.3-5.5-5.5-11-8.3-16.5-8.3-5.1 0.1-10 2.1-13.8 5.5-3.1 3.4-6.9 6.2-11 8.3-5.5 5.5-13.8 13.8-19.3 22-13.8 19.3-27.5 44-27.5 68.8 0 30.3 16.5 52.3 38.5 68.8 11 8.3 24.8 22 24.8 38.5 0 8.3-5.5 19.3-11 24.8-2.8 11-11 19.3-16.5 24.8-2.8 2.8-5.5 2.8-8.3 5.5-2.8 2.9-2.8 2.9-5.6 2.8z m148.6 0c-11 5.5-13.8 19.3-5.5 30.3 5.5 11 19.3 13.8 30.3 8.3 2.8-2.8 8.3-5.5 11-8.3 8.3-5.5 13.8-11 22-19.3 16.5-16.5 30.3-41.3 33-66v-16.5c-8.3-24.8-24.8-44-46.8-57.8-11-8.3-22-19.3-22-33 0-11 5.5-22 8.3-30.3 5.5-8.3 11-13.8 16.5-22l13.8-13.8c8.3-8.3 11-22 2.8-30.3-5.5-5.5-11-8.3-16.5-8.3-5.1 0.1-10 2.1-13.8 5.5-3.1 3.4-6.9 6.2-11 8.3-5.5 5.5-13.8 13.8-19.3 22-13.8 19.2-27.5 44-27.5 68.8 0 30.3 16.5 52.3 38.5 68.8 11 8.3 24.8 22 24.8 38.5 0 8.3-5.5 19.3-11 24.8 0 8.3-8.3 16.5-16.5 22-2.8 2.8-5.5 5.5-8.3 5.5 0 2.9 0 2.9-2.8 2.8z m148.6 0c-11 5.5-13.8 19.3-5.5 30.3 5.5 11 19.3 13.8 27.5 8.3 2.8-2.8 8.3-5.5 11-8.3 8.3-5.5 13.8-11 22-19.3 16.5-16.5 30.3-41.3 33-66v-16.5c-5.5-24.8-24.8-44-44-57.8-11-8.3-22-19.3-22-33 0-11 5.5-22 8.3-30.3 5.5-8.3 11-13.8 16.5-22l13.8-13.8c8.3-8.3 11-22 2.8-30.3-5.5-5.5-11-8.3-16.5-8.3-5.1 0.1-10 2.1-13.8 5.5-3.1 3.4-6.9 6.2-11 8.3-5.5 5.5-13.8 13.8-19.3 22-13.8 19.3-27.5 44-27.5 68.8 0 30.3 16.5 52.3 38.5 68.8 11 8.2 24.8 22 24.8 38.5 0 8.3-5.5 19.3-11 24.8-2.9 11.1-16.6 22.1-27.6 30.3z"  horiz-adv-x="1024" />

    
    <glyph glyph-name="furnituren" unicode="&#59035;" d="M608.983555 478.827875h62.958598l-25.937571-95.180603a15.196903 15.196903 0 0 1 10.740668-18.853301 12.797392 12.797392 0 0 1 4.113447-0.571312 15.425428 15.425428 0 0 1 14.854116 11.426243l28.108557 102.836185h83.75436l28.108558-102.836185a15.425428 15.425428 0 0 1 14.854115-11.426243 12.797392 12.797392 0 0 1 4.113448 0.571312 15.311165 15.311165 0 0 1 10.740668 18.853301L819.56921 478.827875h68.557457a34.278728 34.278728 0 0 1 34.278729 33.707416V750.886716a34.278728 34.278728 0 0 1-33.707417 34.278729H608.983555a34.278728 34.278728 0 0 1-33.707416-34.278729v-238.351425a34.278728 34.278728 0 0 1 33.707416-33.707416M888.126667 506.250857h-92.552567v3.199348a10.512143 10.512143 0 0 1-9.140994 11.426243h-79.9837a10.512143 10.512143 0 0 1-9.140994-11.426243v-3.199348h-88.324857a6.284434 6.284434 0 0 0-6.284434 6.284434v106.721108h292.054767v-106.721108a6.284434 6.284434 0 0 0-6.284434-6.284434M608.983555 756.942625H888.126667a6.284434 6.284434 0 0 0 6.284434-6.284434v-101.693561H795.5741a10.397881 10.397881 0 0 1-9.140994 11.426243h-79.9837a10.397881 10.397881 0 0 1-9.140994-11.426243H602.470597v101.693561a6.284434 6.284434 0 0 0 6.284433 6.284434M306.416645 724.035046a20.110187 20.110187 0 0 1 19.995925 19.995924 19.995925 19.995925 0 0 1-19.995925 19.995925 19.995925 19.995925 0 0 1-19.995925-19.995925 19.995925 19.995925 0 0 1 19.995925-19.995924M240.258699 526.246782h49.475632v-91.409942h-59.416463a39.763325 39.763325 0 0 1-39.877588-39.763325 39.877587 39.877587 0 0 1 39.877588-40.334637h149.683781A39.99185 39.99185 0 0 1 419.650711 394.616465a39.877587 39.877587 0 0 1-39.649062 39.763325h-59.416463v91.409943h49.475632A154.140016 154.140016 0 0 1 522.486897 674.102364a63.07286 63.07286 0 0 1-59.3022 62.844336v21.709861c0 75.641727-70.385656 137.114914-156.882314 137.114914s-156.996576-61.701711-156.996577-137.114914v-21.595599a63.07286 63.07286 0 0 1-61.815973-63.415647 154.254278 154.254278 0 0 1 152.768866-147.398533z m149.912306-131.630317a10.397881 10.397881 0 0 0-10.169356-10.169356h-149.683781a10.397881 10.397881 0 0 0-10.169356 10.169356 10.283619 10.283619 0 0 0 10.169356 10.055094h149.683781a10.283619 10.283619 0 0 0 10.169356-10.055094zM173.757966 758.656561c0 62.273023 59.530725 112.548492 132.658679 112.548492s132.544417-50.732518 132.544417-113.005541v-24.109373A63.52991 63.52991 0 0 1 396.798226 673.645315v-9.026732a11.426243 11.426243 0 0 0-3.313611-8.683945 11.426243 11.426243 0 0 0-8.569682-3.656397H226.547208a11.426243 11.426243 0 0 0-11.426243 11.426242l-1.028362 9.940832a63.07286 63.07286 0 0 1-39.877587 58.616625z m-22.852486-47.647432a36.906764 36.906764 0 0 0 36.792502-36.906765l1.028362-9.940831a38.049389 38.049389 0 0 1 37.820864-38.049388H385.371983a37.592339 37.592339 0 0 1 27.422983 11.426242 37.363814 37.363814 0 0 1 10.397881 27.994295v8.341158a36.906764 36.906764 0 0 0 36.449714 37.363814 36.906764 36.906764 0 0 0 36.906765-36.449715 127.859657 127.859657 0 0 0-126.488508-122.375061H240.258699A127.745395 127.745395 0 0 0 113.770191 674.102364a36.906764 36.906764 0 0 0 36.906764 37.13529zM956.684124 25.663084a61.130399 61.130399 0 0 1-50.732518 60.2163V269.841893a35.421353 35.421353 0 0 1-35.421353 35.421353H151.591055a35.421353 35.421353 0 0 1-35.421353-35.421353v-184.419559A61.130399 61.130399 0 0 1 65.437184 25.663084a61.244662 61.244662 0 0 1 50.389731-60.216299 32.564792 32.564792 0 0 1 0-4.68476v-49.932681a36.335452 36.335452 0 0 1 36.22119-36.335452 36.335452 36.335452 0 0 1 36.335452 36.335452v49.475631 3.656398h646.154031v-53.589079a36.335452 36.335452 0 1 1 72.556642 0v49.932681a32.564792 32.564792 0 0 1 0 4.68476A61.244662 61.244662 0 0 1 956.684124 25.663084zM151.591055 274.298128h718.939198a4.570497 4.570497 0 0 0 4.456235-4.456235v-183.391197H811.57084a52.103667 52.103667 0 0 1 3.884923 19.424613v53.246291a50.732518 50.732518 0 0 1-50.618256 50.618256H596.757475a50.732518 50.732518 0 0 1-50.618256-50.618256v-53.474816a49.932681 49.932681 0 0 1 3.884923-19.424613h-77.926976a49.932681 49.932681 0 0 1 3.884923 19.424613v53.474816a50.732518 50.732518 0 0 1-50.618256 50.618256H257.283801a50.732518 50.732518 0 0 1-50.618256-50.618256v-53.474816a50.046944 50.046944 0 0 1 3.999185-19.424613H147.13482v182.819885a4.570497 4.570497 0 0 0 4.456235 5.256072z m424.256396-168.651344v53.474816a20.910024 20.910024 0 0 0 20.910024 20.910025h168.080032A20.910024 20.910024 0 0 0 785.290482 159.1216v-53.474816a20.910024 20.910024 0 0 0-13.254442-19.424613H589.101892a20.910024 20.910024 0 0 0-13.254441 19.424613z m-339.016625 0v53.474816a20.910024 20.910024 0 0 0 20.910025 20.910025H425.363833a20.910024 20.910024 0 0 0 20.910024-20.910025v-53.474816a20.910024 20.910024 0 0 0-13.254441-19.424613h-182.819886a20.910024 20.910024 0 0 0-13.368704 19.424613zM155.704502-39.92355v-49.932681a3.656398 3.656398 0 0 0-3.656397-3.656397 3.542135 3.542135 0 0 0-3.542136 3.656397v50.161206a3.656398 3.656398 0 0 0 3.542136 3.656398 3.656398 3.656398 0 0 0 3.199348-3.656398z m718.824936-49.932681a3.656398 3.656398 0 1 0-7.198533 0v50.161206a3.656398 3.656398 0 1 0 7.198533 0z m21.367074 86.268134H126.681845a28.565607 28.565607 0 0 0-28.565607 28.565607 28.565607 28.565607 0 0 0 28.565607 28.565607h768.757617a28.565607 28.565607 0 0 0 0-57.131214z"  horiz-adv-x="1024" />

    
    <glyph glyph-name="lipstick" unicode="&#58880;" d="M647.3 407.9V510.8c0 19.1-11.5 35.5-28 42.7V697.6c0 25.8-14.1 49.5-36.9 61.7l-74.6 40c-21.9 11.7-47.7 11.1-69-1.6-21.3-12.8-34-35.2-34-60v-184.1c-16.5-7.2-28-23.6-28-42.7V408c-23.5-2.3-42-22.3-42-46.4v-331.2c0-38.6 31.4-70 70-70h214.6c38.6 0 70 31.4 70 70V361.5c-0.1 24.1-18.6 44.1-42.1 46.4zM423.4 510.8H600.7v-102.6H423.4V510.8z m28 226.8c0 11.9 7.9 18 11.3 20 3.4 2 12.5 6.2 23 0.5l74.6-40c7.6-4.1 12.3-11.9 12.3-20.6v-140.2H451.4V737.6z m191.2-707.3c0-12.9-10.5-23.3-23.3-23.3h-42V184.2c0 12.9-10.4 23.3-23.3 23.3s-23.3-10.4-23.3-23.3V7h-126c-12.9 0-23.3 10.5-23.3 23.3V361.5h261.2v-331.2zM554 296.2c-6.1 0-12.2-2.5-16.5-6.8s-6.8-10.4-6.8-16.5 2.5-12.2 6.8-16.5c4.3-4.3 10.4-6.8 16.5-6.8s12.2 2.5 16.5 6.8c4.3 4.3 6.8 10.4 6.8 16.5s-2.5 12.2-6.8 16.5c-4.4 4.3-10.4 6.8-16.5 6.8z"  horiz-adv-x="1024" />

    
    <glyph glyph-name="shirt" unicode="&#58887;" d="M989.921832 811.659636h-309.244553c-18.818155 0-34.078168-15.256566-34.078168-34.078168 0-74.221037-60.381522-134.602559-134.602559-134.602559s-134.602559 60.381522-134.602559 134.602559c0 18.818155-15.256566 34.078168-34.078168 34.078168H34.078168C15.256566 811.659636 0 796.403071 0 777.584916v-337.358007c0-18.818155 15.256566-34.074721 34.078168-34.07472H140.567273v-415.733657c0-18.818155 15.256566-34.078168 34.07472-34.078168h674.716014c18.818155 0 34.078168 15.256566 34.078168 34.078168V406.148741h106.489104c18.818155 0 34.078168 15.256566 34.078169 34.07472V777.584916c-0.003448 18.818155-15.260013 34.074721-34.081616 34.07472z m-34.074721-337.358006h-106.489104c-18.818155 0-34.074721-15.256566-34.074721-34.074721v-415.733656H208.720162V440.226909c0 18.818155-15.256566 34.074721-34.074721 34.074721H68.152889v269.205117h243.956795c16.246088-95.635394 99.696916-168.677279 199.890316-168.677279s183.644229 73.041886 199.890316 168.677279h243.956795v-269.205117zM525.318896 520.71262a262.91631 262.91631 0 0 0-28.065186 0.210316 23.858855 23.858855 0 0 1-3.10303-47.60738l0.186182-0.013792c11.046788-0.675771 22.221145-0.758519 33.205872-0.244794a23.85196 23.85196 0 0 1 22.714182 24.93802 23.824377 23.824377 0 0 1-24.93802 22.71763zM643.57538 556.038896a258.213495 258.213495 0 0 0-24.882855-12.922398 23.855407 23.855407 0 0 1 19.638734-43.48035 305.365764 305.365764 0 0 1 29.499475 15.318626 23.848512 23.848512 0 0 1 8.41266 32.664566 23.841616 23.841616 0 0 1-32.668014 8.419556zM404.104189 544.523205a257.613576 257.613576 0 0 0-24.724256 13.24994 23.855407 23.855407 0 1 1-24.793212-40.763475 305.70365 305.70365 0 0 1 29.31674-15.708229 23.783003 23.783003 0 0 1 8.450586-2.192808 23.869199 23.869199 0 0 1 23.258936 13.705051 23.85196 23.85196 0 0 1-11.508794 31.709521zM292.288215 645.395825a23.858855 23.858855 0 0 1-40.894491-24.565657 307.079327 307.079327 0 0 1 18.638869-27.516983 23.800242 23.800242 0 0 1 17.363178-9.371151 23.848512 23.848512 0 0 1 20.624808 38.225885 260.785562 260.785562 0 0 0-15.732364 23.227906zM719.934061 585.965899a23.717495 23.717495 0 0 1 13.025831-5.002774 23.831273 23.831273 0 0 1 20.459313 9.109117 305.889832 305.889832 0 0 1 19.021576 27.279085 23.845064 23.845064 0 0 1-7.723097 32.833508 23.838168 23.838168 0 0 1-32.833509-7.723098 259.768458 259.768458 0 0 0-16.049562-23.014141 23.845064 23.845064 0 0 1 4.099448-33.481697zM287.095811 492.192323a23.855407 23.855407 0 0 1-23.855407-23.855407v-15.335865c0-13.174088 10.677872-23.85196 23.855407-23.85196s23.85196 10.677872 23.85196 23.85196v15.335865a23.85196 23.85196 0 0 1-23.85196 23.855407zM287.095811 375.504593a23.85196 23.85196 0 0 1-23.855407-23.85196v-29.423623c0-13.174088 10.677872-23.85196 23.855407-23.851959s23.85196 10.677872 23.85196 23.851959v29.423623a23.85196 23.85196 0 0 1-23.85196 23.85196zM287.095811 244.725657a23.85196 23.85196 0 0 1-23.855407-23.85196v-29.427071c0-13.174088 10.677872-23.85196 23.855407-23.851959s23.85196 10.677872 23.85196 23.851959v29.427071a23.85196 23.85196 0 0 1-23.85196 23.85196zM287.095811 113.943273a23.85196 23.85196 0 0 1-23.855407-23.85196v-15.335865a23.855407 23.855407 0 1 1 47.707367 0v15.335865a23.85196 23.85196 0 0 1-23.85196 23.85196zM736.904189 492.192323a23.855407 23.855407 0 0 1-23.855408-23.855407v-15.335865a23.85196 23.85196 0 0 1 23.855408-23.85196 23.85196 23.85196 0 0 1 23.855407 23.85196v15.335865a23.855407 23.855407 0 0 1-23.855407 23.855407zM736.904189 244.725657a23.85196 23.85196 0 0 1-23.855408-23.85196v-29.427071a23.85196 23.85196 0 0 1 23.855408-23.851959 23.85196 23.85196 0 0 1 23.855407 23.851959v29.427071a23.85196 23.85196 0 0 1-23.855407 23.85196zM736.904189 375.504593a23.85196 23.85196 0 0 1-23.855408-23.85196v-29.423623a23.85196 23.85196 0 0 1 23.855408-23.851959 23.85196 23.85196 0 0 1 23.855407 23.851959v29.423623a23.85196 23.85196 0 0 1-23.855407 23.85196zM736.904189 113.943273a23.85196 23.85196 0 0 1-23.855408-23.85196v-15.335865a23.855407 23.855407 0 1 1 47.710815 0v15.335865a23.85196 23.85196 0 0 1-23.855407 23.85196z"  horiz-adv-x="1024" />

    
    <glyph glyph-name="Boot" unicode="&#59114;" d="M785.07008 384h-204.8V588.8c37.5296 0 68.25984 30.73024 68.25984 68.25984v68.27008c0 37.5296-30.73024 68.27008-68.25984 68.27008h-409.6C133.09952 793.6 102.4 762.85952 102.4 725.32992v-68.27008C102.4 619.53024 133.09952 588.8 170.67008 588.8v-614.4H921.6V247.45984C921.6 322.85696 860.4672 384 785.07008 384z m-614.4 341.32992h409.6v-68.27008h-409.6v68.27008z m68.25984-409.6c75.39712 0 136.4992-61.17376 136.4992-136.52992h-136.4992V315.72992z m614.4-273.07008h-614.4v68.27008h614.4v-68.27008zM443.66848 179.2c0 113.05984-91.5968 204.8-204.73856 204.8V588.8H512v-68.27008h-68.27008v-68.27008H512V384h-68.27008v-68.27008h341.34016a68.29056 68.29056 0 0 0 68.25984-68.27008V179.2H443.66848z"  horiz-adv-x="1024" />

    
    <glyph glyph-name="cherry" unicode="&#59213;" d="M260.992 445.984q20.992 104.992 63.008 178.016Q360 684.992 436.992 768H320q-14.016 0-23.008 8.992T288 800t8.992 23.008T320 832h384q14.016 0 23.008-8.992T736 800t-8.992-23.008T704 768h-148.992q22.016-59.008 79.008-142.016 36-51.008 63.008-79.488T741.024 512q88-4 148.992-61.504t68.992-145.504q4.992-88.992-46.496-155.008t-138.496-83.008q-87.008-12.992-158.016 32t-96 128.992q-22.016 86.016 16 160.992t120 108q-34.016 35.008-74.016 92.992-59.008 84-84.992 148.992-83.008-87.008-117.504-147.008t-53.504-147.008q88.992-16.992 140.512-84.992t44.512-158.016q-11.008-88.992-74.496-145.504t-153.504-56.512Q192 3.904 131.52 63.392t-67.488 149.504q-2.016 90.016 52.992 155.488t144 77.504zM288 64q68 2.016 112.992 47.008T448 224q-2.016 68-47.008 112.992T288 384q-68-2.016-112.992-47.008T128 224q2.016-68 47.008-112.992T288 64z m448 64q68 2.016 112.992 47.008T896 288q-2.016 68-47.008 112.992T736 448q-68-2.016-112.992-47.008T576 288q2.016-68 47.008-112.992T736 128z"  horiz-adv-x="1024" />

    
    <glyph glyph-name="Mobilephone" unicode="&#58907;" d="M736-96H288c-52.928 0-96 43.072-96 96V768c0 52.928 43.072 96 96 96h448c52.928 0 96-43.072 96-96v-768c0-52.928-43.072-96-96-96zM288 800c-17.632 0-32-14.368-32-32v-768c0-17.664 14.368-32 32-32h448c17.664 0 32 14.336 32 32V768c0 17.632-14.336 32-32 32H288zM512-0.416c-35.296 0-64 28.704-64 64s28.704 64 64 64 64-28.704 64-64-28.704-64-64-64z m0.032 64s-0.064 0-0.064-0.032l0.032-31.968 0.032 32zM704 160H320c-17.664 0-32 14.304-32 32V736c0 17.664 14.336 32 32 32h384c17.696 0 32-14.336 32-32v-544c0-17.696-14.304-32-32-32z m-352 64h320V704H352v-480z"  horiz-adv-x="1024" />

    
    <glyph glyph-name="baby-carriage" unicode="&#60088;" d="M1008 704h-80c-53 0-96-43-96-96v-96H561.6L348.6 847c-16 25.2-42.4 42.4-72.6 47.4-29.6 5-59.6-2.4-82.4-20.6C70.6 775.4 0 632 0 480v-32c0-134.4 80.6-252.4 202.6-321-3.6 0.2-7 1-10.6 1-70.6 0-128-57.4-128-128s57.4-128 128-128 128 57.4 128 128c0 36.2-15.2 68.6-39.2 92 51.8-17.8 108-28 167.2-28s115.6 10 167.2 28c-24-23.2-39.2-55.8-39.2-92 0-70.6 57.4-128 128-128s128 57.4 128 128-57.4 128-128 128c-3.6 0-7-0.8-10.6-1C815.4 195.6 896 313.6 896 448v160c0 17.6 14.4 32 32 32h80c8.8 0 16 7.2 16 16v32c0 8.8-7.2 16-16 16zM233.6 823.8c11.8 9.4 25.2 8.8 31.8 7.6 12.4-2 23-8.8 29.2-18.6L485.8 512H65.2c9.2 120.4 69.4 232.6 168.4 311.8zM192-64c-35.2 0-64 28.8-64 64s28.8 64 64 64 64-28.8 64-64-28.8-64-64-64z m512 128c35.2 0 64-28.8 64-64s-28.8-64-64-64-64 28.8-64 64 28.8 64 64 64z m-256 64c-211.8 0-384 143.6-384 320h768c0-176.4-172.2-320-384-320z"  horiz-adv-x="1024" />

    
    <glyph glyph-name="refrigerator" unicode="&#58908;" d="M256 448h512V736q0 14.016-8.992 23.008T736 768H288q-14.016 0-23.008-8.992T256 736v-288z m0-64v-352q0-14.016 8.992-23.008T288 0h448q14.016 0 23.008 8.992T768 32V384H256zM288 832h448q40.992-0.992 68-28T832 736v-704q-0.992-40.992-28-68T736-64H288q-40.992 0.992-68 28T192 32V736q0.992 40.992 28 68T288 832z m32-224h64v-96h-64V608z m0-288h64v-96h-64v96z"  horiz-adv-x="1024" />

    
    <glyph glyph-name="books" unicode="&#59845;" d="M1150.66-16.86L798 879.96C794.56 889.8 785.22 896 775.3 896c-6.02 0-9.94-2.06-22.98-6.62-12.92-4.52-19.64-16.48-12.54-36.76-32.92-19.38-118.3-48.18-151-52.84-2.66 7.56-3.94 13.24-12.8 18.46V832c0 35.34-28.66 64-64 64h-192c-11.92 0-22.44-4.14-32-9.8C278.44 891.86 267.92 896 256 896H64C28.66 896 0 867.34 0 832v-896c0-35.34 28.66-64 64-64h192c11.92 0 22.44 4.14 32 9.8 9.56-5.68 20.08-9.8 32-9.8h192c35.34 0 64 28.66 64 64V658.24l302.86-770.2c3.46-9.84 12.8-16.04 22.7-16.04 6 0 9.92 2.06 22.98 6.62 12.88 4.5 19.66 16.46 12.54 36.76 32.92 19.38 118.3 48.18 151 52.84 7.3-20.8 20.26-25.3 32.76-20.92l15.1 5.28c12.46 4.38 19.08 18.14 14.72 30.56zM256-64H64v128h192v-128z m0 192H64V640h192v-512z m0 576H64V832h192v-128z m256-768h-192v128h192v-128z m0 192h-192V640h192v-512z m0 576h-192V832h192v-128z m406.3-735.08L607.58 746.24c50.44 9.48 128.02 40.66 151 52.84l310.72-777.3c-50.46-9.5-128.02-40.66-151-52.86z"  horiz-adv-x="1152" />

    
    <glyph glyph-name="hot" unicode="&#59463;" d="M512-66.56c-180.98176 0-327.68 146.69824-327.68 327.68 0 96.62464 32.01024 174.63296 96.01024 234.02496a40.96 40.96 0 0 0 68.3008-36.59776c-10.46528-64.36864 9.29792-96.5632 59.26912-96.5632 130.9696 0-142.52032 405.504 186.01984 472.576-81.92-139.96032 124.8256-299.6224 184.32-382.3616 38.66624-53.78048 61.44-119.76704 61.44-191.0784 0-180.98176-146.69824-327.68-327.68-327.68z m40.96 122.88a163.84 163.84 0 0 1 163.84 163.84 40.96 40.96 0 1 1-81.92 0 81.92 81.92 0 0 0-81.92-81.92 40.96 40.96 0 1 1 0-81.92z"  horiz-adv-x="1024" />

    
    <glyph glyph-name="new" unicode="&#59203;" d="M768 768 256 768c-70.4 0-128-57.6-128-128l0-597.12c0-39.68 47.36-58.88 75.52-31.36l89.6 89.6C310.4 118.4 334.08 128 358.4 128L768 128c70.4 0 128 57.6 128 128L896 640C896 711.04 838.4 768 768 768zM704 288c0-17.92-14.08-32-32-32-4.48 0-8.96 0.64-12.8 2.56-6.4 1.28-12.16 3.84-16.64 8.96L384 526.08 384 288C384 270.08 369.92 256 352 256S320 270.08 320 288L320 599.68C318.08 610.56 320.64 622.08 328.96 631.04c14.08 14.08 35.84 14.08 49.92 0L640 369.92 640 608C640 625.92 654.08 640 672 640 689.92 640 704 625.92 704 608L704 288z"  horiz-adv-x="1024" />

    
    <glyph glyph-name="cart" unicode="&#59141;" d="M725.333333 128C677.973333 128 640 90.026667 640 42.666667 640-4.266667 678.4-42.666667 725.333333-42.666667 772.266667-42.666667 810.666667-4.266667 810.666667 42.666667 810.666667 90.026667 772.266667 128 725.333333 128M42.666667 810.666667 42.666667 725.333333 128 725.333333 281.6 401.493333 223.573333 296.96C217.173333 285.013333 213.333333 270.933333 213.333333 256 213.333333 209.066667 251.733333 170.666667 298.666667 170.666667L810.666667 170.666667 810.666667 256 316.586667 256C310.613333 256 305.92 260.693333 305.92 266.666667 305.92 268.8 306.346667 270.506667 307.2 271.786667L345.6 341.333333 663.466667 341.333333C695.466667 341.333333 723.626667 359.253333 738.133333 385.28L890.88 661.333333C893.866667 668.16 896 675.413333 896 682.666667 896 706.133333 876.8 725.333333 853.333333 725.333333L222.293333 725.333333 182.186667 810.666667M298.666667 128C251.306667 128 213.333333 90.026667 213.333333 42.666667 213.333333-4.266667 251.733333-42.666667 298.666667-42.666667 345.6-42.666667 384-4.266667 384 42.666667 384 90.026667 345.6 128 298.666667 128Z"  horiz-adv-x="1024" />

    
    <glyph glyph-name="category1" unicode="&#58882;" d="M196.277 670.084c0-12.675-10.264-22.951-22.952-22.951H87.254c-12.687 0-22.954 10.277-22.954 22.95v86.07c0 12.675 10.267 22.952 22.954 22.952h86.071c12.688 0 22.952-10.276 22.952-22.951v-86.07zM959.45 670.084c0-12.675-10.265-22.951-22.951-22.951H311.04c-12.687 0-22.953 10.276-22.953 22.95v86.07c0 12.675 10.266 22.95 22.953 22.95h625.458c12.685 0 22.951-10.275 22.951-22.95v-86.07zM196.277 363.106c0-12.675-10.264-22.952-22.952-22.952H87.254c-12.687 0-22.954 10.277-22.954 22.952v86.07c0 12.674 10.266 22.951 22.953 22.951h86.071c12.688 0 22.952-10.276 22.952-22.952v-86.069zM959.45 363.106c0-12.675-10.265-22.952-22.951-22.952H311.04c-12.687 0-22.953 10.277-22.953 22.952v86.07c0 12.674 10.266 22.951 22.953 22.951h625.458c12.685 0 22.951-10.276 22.951-22.952v-86.069zM196.277 56.129c0-12.675-10.264-22.952-22.952-22.952H87.254c-12.687 0-22.954 10.277-22.954 22.952v86.068c0 12.676 10.266 22.953 22.953 22.953h86.071c12.688 0 22.952-10.277 22.952-22.953v-86.068zM959.45 56.129c0-12.675-10.265-22.952-22.951-22.952H311.04c-12.687 0-22.953 10.277-22.953 22.952v86.068c0 12.676 10.266 22.953 22.953 22.953h625.458c12.685 0 22.951-10.277 22.951-22.953v-86.068z"  horiz-adv-x="1024" />

    
    <glyph glyph-name="phone" unicode="&#58904;" d="M761.503 893.094H242.122c-32.405 0-58.932-26.06-58.932-58.528v-902.302c0-32.157 26.217-58.217 58.932-58.217h519.381c32.345 0 58.591 26.06 58.591 58.217V834.877c0 32.156-26.246 58.217-58.591 58.217M452.879 834.877h98.147c6.78 0 12.316-5.536 12.316-12.253 0-6.749-5.535-12.253-12.316-12.253H452.88c-6.78 0-12.345 5.504-12.345 12.253-0.001 6.717 5.566 12.253 12.345 12.253m48.763-919.47c-29.637 0-53.988 23.946-53.988 53.677 0 29.357 24.04 53.614 53.988 53.614 29.917 0 53.987-23.884 53.987-53.614 0-29.731-24.069-53.677-53.987-53.677m264.715 177.45c0-16.234-13.187-29.108-29.234-29.108H266.504c-16.357 0-29.326 13.186-29.326 29.108V732.5c0 16.233 13.28 29.139 29.326 29.139H736.75c16.421 0 29.358-13.185 29.358-29.139v-639.642h0.249z m0 0"  horiz-adv-x="1024" />

    


  </font>
</defs>
</svg>
